# xmcd
#
# Track frame offsets: 
#        150
#        18680
#        39877
#        63907
#        86362
#        155515
#        173297
#        192277
#        239257
#        253685
#        290995
#        305935
#
# Disc length: 4414 seconds
#
# Revision: 3
# Processed by: cddbd v1.5.2PL0 Copyright (c) Steve Scherf et al.
# Submitted via: ExactAudioCopy v0.99pb5
#
DISCID=9f113c0c
DTITLE=Joe Claussell - Music...A Reason To Celebrate - Disc 02
DYEAR=2002
DGENRE=Electronic
TTITLE0=Louis Armstrong - The Creator Has A Masterplan
TTITLE1=Shirley Ceasar - Message To The People
TTITLE2=Sounds Of Blackness - Optimistic
TTITLE3=Syreeta - To Know You Is To Love You
TTITLE4=Monday Michiru - Mysteries Of Life
TTITLE5=Regeneration featuring Stanley Cowell - Trying To Find A Way
TTITLE6=Jorge Ben - Oba L Vem Ela
TTITLE7=Hector Lavoe - El Cantante
TTITLE8=Black Blood - A.I.E.A Mwana
TTITLE9=King Sunny Ade and His African Beats - The Message
TTITLE10=Drum Dance - Fanga Alafia (Joe's Edit)
TTITLE11=Maynard Fergson - Pagliacci
EXTD=Music...A Reason To Celebrate - YEAR: 2002
EXTT0=
EXTT1=
EXTT2=
EXTT3=
EXTT4=
EXTT5=
EXTT6=
EXTT7=
EXTT8=
EXTT9=
EXTT10=
EXTT11=
PLAYORDER=
